<svg width="95" height="19" viewBox="0 0 95 19" fill="none" xmlns="http://www.w3.org/2000/svg">
<path d="M7.7968 13.3681L15.8636 13.3923V17.4992L0.5 17.4751V12.4897L11.4783 5.56764L12.9421 4.64469H11.2116H5.11364H4.61364V5.14469V7.43402L0.5 10.0142V0.5H15.8636V7.19104L7.5316 12.4452L6.07619 13.363L7.7968 13.3681Z" fill="black"/>
<path d="M7.7968 13.3681L15.8636 13.3923V17.4992L0.5 17.4751V12.4897L11.4783 5.56764L12.9421 4.64469H11.2116H5.11364H4.61364V5.14469V7.43402L0.5 10.0142V0.5H15.8636V7.19104L7.5316 12.4452L6.07619 13.363L7.7968 13.3681Z" fill="black" fill-opacity="0.2"/>
<path d="M7.7968 13.3681L15.8636 13.3923V17.4992L0.5 17.4751V12.4897L11.4783 5.56764L12.9421 4.64469H11.2116H5.11364H4.61364V5.14469V7.43402L0.5 10.0142V0.5H15.8636V7.19104L7.5316 12.4452L6.07619 13.363L7.7968 13.3681Z" stroke="black"/>
<path d="M7.7968 13.3681L15.8636 13.3923V17.4992L0.5 17.4751V12.4897L11.4783 5.56764L12.9421 4.64469H11.2116H5.11364H4.61364V5.14469V7.43402L0.5 10.0142V0.5H15.8636V7.19104L7.5316 12.4452L6.07619 13.363L7.7968 13.3681Z" stroke="black" stroke-opacity="0.2"/>
<path d="M24.0915 8.96V11.232H27.7555V13.344H24.0915V15.808H28.2355V18H21.3555V6.768H28.2355V8.96H24.0915ZM32.5718 15.744H36.4438V18H29.5158V15.824L33.2278 11.328H29.5478V9.072H36.3638V11.248L32.5718 15.744ZM47.0679 18L44.7319 13.76H44.0759V18H41.3399V6.768H45.9319C46.8172 6.768 47.5692 6.92267 48.1879 7.232C48.8172 7.54133 49.2866 7.968 49.5959 8.512C49.9052 9.04533 50.0599 9.64267 50.0599 10.304C50.0599 11.0507 49.8466 11.7173 49.4199 12.304C49.0039 12.8907 48.3852 13.3067 47.5639 13.552L50.1559 18H47.0679ZM44.0759 11.824H45.7719C46.2732 11.824 46.6466 11.7013 46.8919 11.456C47.1479 11.2107 47.2759 10.864 47.2759 10.416C47.2759 9.98933 47.1479 9.65333 46.8919 9.408C46.6466 9.16267 46.2732 9.04 45.7719 9.04H44.0759V11.824ZM60.1934 13.392C60.1934 13.648 60.1774 13.9147 60.1454 14.192H53.9534C53.9961 14.7467 54.1721 15.1733 54.4814 15.472C54.8014 15.76 55.1907 15.904 55.6494 15.904C56.3321 15.904 56.8067 15.616 57.0734 15.04H59.9854C59.8361 15.6267 59.5641 16.1547 59.1694 16.624C58.7854 17.0933 58.3001 17.4613 57.7134 17.728C57.1267 17.9947 56.4707 18.128 55.7454 18.128C54.8707 18.128 54.0921 17.9413 53.4094 17.568C52.7267 17.1947 52.1934 16.6613 51.8094 15.968C51.4254 15.2747 51.2334 14.464 51.2334 13.536C51.2334 12.608 51.4201 11.7973 51.7934 11.104C52.1774 10.4107 52.7107 9.87733 53.3934 9.504C54.0761 9.13067 54.8601 8.944 55.7454 8.944C56.6094 8.944 57.3774 9.12533 58.0494 9.488C58.7214 9.85067 59.2441 10.368 59.6174 11.04C60.0014 11.712 60.1934 12.496 60.1934 13.392ZM57.3934 12.672C57.3934 12.2027 57.2334 11.8293 56.9134 11.552C56.5934 11.2747 56.1934 11.136 55.7134 11.136C55.2547 11.136 54.8654 11.2693 54.5454 11.536C54.2361 11.8027 54.0441 12.1813 53.9694 12.672H57.3934ZM67.0768 8.976C68.1221 8.976 68.9541 9.31733 69.5728 10C70.2021 10.672 70.5168 11.6 70.5168 12.784V18H67.7968V13.152C67.7968 12.5547 67.6421 12.0907 67.3328 11.76C67.0234 11.4293 66.6074 11.264 66.0848 11.264C65.5621 11.264 65.1461 11.4293 64.8368 11.76C64.5274 12.0907 64.3728 12.5547 64.3728 13.152V18H61.6368V9.072H64.3728V10.256C64.6501 9.86133 65.0234 9.552 65.4928 9.328C65.9621 9.09333 66.4901 8.976 67.0768 8.976ZM77.394 15.68V18H76.002C75.01 18 74.2367 17.76 73.682 17.28C73.1274 16.7893 72.85 15.9947 72.85 14.896V11.344H71.762V9.072H72.85V6.896H75.586V9.072H77.378V11.344H75.586V14.928C75.586 15.1947 75.65 15.3867 75.778 15.504C75.906 15.6213 76.1194 15.68 76.418 15.68H77.394Z" fill="black"/>
<path d="M24.0915 8.96V11.232H27.7555V13.344H24.0915V15.808H28.2355V18H21.3555V6.768H28.2355V8.96H24.0915ZM32.5718 15.744H36.4438V18H29.5158V15.824L33.2278 11.328H29.5478V9.072H36.3638V11.248L32.5718 15.744ZM47.0679 18L44.7319 13.76H44.0759V18H41.3399V6.768H45.9319C46.8172 6.768 47.5692 6.92267 48.1879 7.232C48.8172 7.54133 49.2866 7.968 49.5959 8.512C49.9052 9.04533 50.0599 9.64267 50.0599 10.304C50.0599 11.0507 49.8466 11.7173 49.4199 12.304C49.0039 12.8907 48.3852 13.3067 47.5639 13.552L50.1559 18H47.0679ZM44.0759 11.824H45.7719C46.2732 11.824 46.6466 11.7013 46.8919 11.456C47.1479 11.2107 47.2759 10.864 47.2759 10.416C47.2759 9.98933 47.1479 9.65333 46.8919 9.408C46.6466 9.16267 46.2732 9.04 45.7719 9.04H44.0759V11.824ZM60.1934 13.392C60.1934 13.648 60.1774 13.9147 60.1454 14.192H53.9534C53.9961 14.7467 54.1721 15.1733 54.4814 15.472C54.8014 15.76 55.1907 15.904 55.6494 15.904C56.3321 15.904 56.8067 15.616 57.0734 15.04H59.9854C59.8361 15.6267 59.5641 16.1547 59.1694 16.624C58.7854 17.0933 58.3001 17.4613 57.7134 17.728C57.1267 17.9947 56.4707 18.128 55.7454 18.128C54.8707 18.128 54.0921 17.9413 53.4094 17.568C52.7267 17.1947 52.1934 16.6613 51.8094 15.968C51.4254 15.2747 51.2334 14.464 51.2334 13.536C51.2334 12.608 51.4201 11.7973 51.7934 11.104C52.1774 10.4107 52.7107 9.87733 53.3934 9.504C54.0761 9.13067 54.8601 8.944 55.7454 8.944C56.6094 8.944 57.3774 9.12533 58.0494 9.488C58.7214 9.85067 59.2441 10.368 59.6174 11.04C60.0014 11.712 60.1934 12.496 60.1934 13.392ZM57.3934 12.672C57.3934 12.2027 57.2334 11.8293 56.9134 11.552C56.5934 11.2747 56.1934 11.136 55.7134 11.136C55.2547 11.136 54.8654 11.2693 54.5454 11.536C54.2361 11.8027 54.0441 12.1813 53.9694 12.672H57.3934ZM67.0768 8.976C68.1221 8.976 68.9541 9.31733 69.5728 10C70.2021 10.672 70.5168 11.6 70.5168 12.784V18H67.7968V13.152C67.7968 12.5547 67.6421 12.0907 67.3328 11.76C67.0234 11.4293 66.6074 11.264 66.0848 11.264C65.5621 11.264 65.1461 11.4293 64.8368 11.76C64.5274 12.0907 64.3728 12.5547 64.3728 13.152V18H61.6368V9.072H64.3728V10.256C64.6501 9.86133 65.0234 9.552 65.4928 9.328C65.9621 9.09333 66.4901 8.976 67.0768 8.976ZM77.394 15.68V18H76.002C75.01 18 74.2367 17.76 73.682 17.28C73.1274 16.7893 72.85 15.9947 72.85 14.896V11.344H71.762V9.072H72.85V6.896H75.586V9.072H77.378V11.344H75.586V14.928C75.586 15.1947 75.65 15.3867 75.778 15.504C75.906 15.6213 76.1194 15.68 76.418 15.68H77.394Z" fill="black" fill-opacity="0.2"/>
</svg>
